<svg width="30" height="30" viewBox="0 0 30 30" fill="none" xmlns="http://www.w3.org/2000/svg">
<path d="M15.0121 0C6.72985 0 0.0241394 6.71111 0.0241394 15C0.0241394 23.2889 6.72985 30 15.0121 30C23.2943 30 30 23.2889 30 15C30 6.71111 23.2943 0 15.0121 0ZM10.0827 23.2C9.0169 23.1778 7.9511 23.2 6.88529 23.2C6.70765 23.2 6.66324 23.1556 6.66324 22.9778C6.66324 19.1778 6.66324 15.3778 6.66324 11.5778C6.66324 11.4222 6.70764 11.3556 6.86308 11.3556C7.95109 11.3556 9.0169 11.3556 10.1049 11.3556C10.3048 11.3556 10.3492 11.4444 10.3492 11.6222C10.3492 13.5111 10.3492 15.4 10.3492 17.3111C10.3492 19.2 10.3492 21.0667 10.3492 22.9556C10.3492 23.1333 10.2825 23.2 10.0827 23.2ZM8.5062 9.73333C7.35158 9.73333 6.37458 8.77778 6.37458 7.62222C6.37458 6.44444 7.32937 5.48889 8.5062 5.48889C9.66083 5.48889 10.6378 6.44444 10.6378 7.6C10.6378 8.75556 9.68303 9.73333 8.5062 9.73333ZM24.1381 22.9556C24.1381 23.1556 24.0937 23.2 23.8938 23.2C22.828 23.2 21.7622 23.2 20.6964 23.2C20.5187 23.2 20.4743 23.1333 20.4743 22.9556C20.4743 20.9778 20.4743 19.0222 20.4743 17.0444C20.4743 16.5556 20.4521 16.0667 20.2967 15.5778C20.0525 14.6889 19.4085 14.2444 18.4759 14.2889C17.2103 14.3556 16.5442 14.9778 16.3887 16.2667C16.3443 16.5778 16.3221 16.8889 16.3221 17.2C16.3221 19.1111 16.3221 21.0444 16.3221 22.9556C16.3221 23.1556 16.2777 23.2 16.0779 23.2C15.0121 23.2 13.9241 23.2 12.8582 23.2C12.6806 23.2 12.6362 23.1556 12.6362 22.9778C12.6362 19.1778 12.6362 15.3778 12.6362 11.5778C12.6362 11.4 12.7028 11.3556 12.8805 11.3556C13.9019 11.3556 14.9233 11.3556 15.9447 11.3556C16.1223 11.3556 16.1889 11.4222 16.1667 11.6C16.1667 12.0444 16.1667 12.5111 16.1667 12.9556C16.4109 12.6889 16.6108 12.4 16.8772 12.1556C17.6544 11.4222 18.5648 11.0444 19.6528 11.0667C20.2523 11.0667 20.8296 11.1111 21.3847 11.2889C22.6948 11.6667 23.4497 12.5556 23.805 13.8444C24.0714 14.8 24.1159 15.7778 24.1159 16.7556C24.1381 18.8 24.1381 20.8889 24.1381 22.9556Z" fill="#F7F6F5"/>
</svg>
