<?xml version="1.0" encoding="UTF-8"?><svg id="a" xmlns="http://www.w3.org/2000/svg" viewBox="0 0 2502.78 198.8"><defs><style>.b{fill:#23B0E6;}.c{fill:#fff;}</style></defs><polygon class="c" points="2186.26 .2 2186.26 198.3 2142.04 198.3 2142.04 121.17 2021.74 121.17 2021.74 134.96 2021.73 134.96 2021.73 198.3 1977.51 198.3 1977.51 .06 2021.55 .06 2021.55 77.18 2142.22 77.18 2142.22 .2 2186.26 .2"/><polygon class="c" points="1357.63 0 1357.63 44.04 1274.95 44.04 1274.95 198.24 1230.73 198.24 1230.73 44.04 1148.05 44.04 1148.05 0 1357.63 0"/><polygon class="c" points="1914.17 198.24 1859.05 198.24 1832.86 163.41 1812.06 135.75 1810.84 137.38 1810.83 137.39 1765.05 198.24 1710.07 198.24 1753.07 141.06 1783.34 100.81 1784.56 99.19 1710.07 .13 1765.19 .13 1812.12 62.54 1812.53 62 1859.05 .13 1914.03 .13 1871.95 56.09 1840.02 98.55 1839.94 98.66 1839.62 99.09 1840.83 100.72 1914.17 198.24"/><path class="c" d="M796.1,46.93c-2.31-7.09-5.66-13.57-9.84-19.46-4.18-5.66-9.23-10.44-15.06-14.84-5.89-4.18-12.37-7.36-19.07-9.45-6.87-2.09-13.8-3.13-20.67-3.13h-143.01V198.8h44.22v-63.97h98.78c10.89,0,21.33-2.53,30.95-7.37,9.62-5,17.81-11.7,23.85-20.06,3.96-5.44,7.31-11.7,9.84-18.41,2.31-6.7,3.57-13.41,3.57-20.5s-1.05-14.46-3.57-21.55Zm-63.99,44.14c-.12,0-.24,0-.36,0h-.25c-.09,0-.17,0-.26,0h-98.56V44.02h98.56c.09,0,.17,0,.26,0h.21c.13,0,.27,0,.4,0,12.99,0,23.52,10.53,23.52,23.52s-10.54,23.52-23.52,23.52Z"/><path class="c" d="M518.6,63.1l-39.54,20.38c1.47,4.96,2.26,10.21,2.26,15.64,0,18.17-8.8,34.27-22.35,44.31-9.15,6.77-20.47,10.77-32.73,10.77h-55.95c-7.31,0-14.29-1.42-20.67-4.01l-44.98,23.19c17.48,15.47,40.47,24.86,65.65,24.86h55.95c34.36,0,64.64-17.48,82.41-44.04,10.55-15.75,16.71-34.7,16.71-55.08,0-12.71-2.39-24.86-6.75-36.02Z"/><path class="b" d="M315.2,99.13c0-18.17,8.79-34.27,22.35-44.31,9.15-6.77,20.47-10.77,32.73-10.77h55.95c8.27,0,16.12,1.82,23.15,5.08l44.16-22.76C475.87,10,452.22,0,426.23,0h-55.95C335.92,0,305.64,17.49,287.87,44.04c-10.55,15.75-16.71,34.7-16.71,55.08,0,13.45,2.68,26.27,7.53,37.96l39.39-20.3c-1.87-5.54-2.89-11.48-2.89-17.66Z"/><path class="c" d="M1517.95,99.43l75.6-30.72c-3.56-5.37-8.03-10.08-13.2-13.9-9.15-6.77-20.47-10.77-32.73-10.77h-28.48c-12.26,0-23.58,4-32.73,10.77-13.56,10.04-22.35,26.15-22.35,44.31s8.8,34.27,22.35,44.31c9.15,6.77,20.47,10.77,32.73,10.77h127.6v44.04h-127.6c-34.36,0-64.64-17.48-82.41-44.04-10.55-15.75-16.71-34.7-16.71-55.08s6.15-39.33,16.71-55.08C1454.5,17.49,1484.77,0,1519.13,0h28.48c34.36,0,64.64,17.48,82.41,44.04,10.55,15.75,16.71,34.7,16.71,55.08v12.53h-128.78v-12.23Z"/><path class="c" d="M1068.81,154.2V0h-118.75c-20.46,0-38.67,12.96-45.37,32.29-6.11,17.62-12.23,35.24-18.34,52.85l-23.24,66.99-.71,2.07h-21.59v44.04h244.4v-44.04h-16.4Zm-44.22,0h-117.8l.7-2.02,18.42-53.05,14.26-41.05c2.87-8.28,10.67-13.83,19.44-13.83h64.98v109.95Z"/><path class="c" d="M2496.03,63.1l-39.54,20.38c1.47,4.96,2.26,10.21,2.26,15.64,0,18.17-8.8,34.27-22.35,44.31-9.15,6.77-20.47,10.77-32.73,10.77h-55.95c-7.31,0-14.29-1.42-20.67-4.01l-44.98,23.19c17.48,15.47,40.47,24.86,65.65,24.86h55.95c34.36,0,64.64-17.48,82.41-44.04,10.55-15.75,16.71-34.7,16.71-55.08,0-12.71-2.39-24.86-6.75-36.02Z"/><path class="b" d="M2292.63,99.12c0-18.17,8.79-34.27,22.35-44.31,9.15-6.77,20.47-10.77,32.73-10.77h55.95c8.27,0,16.12,1.82,23.15,5.08l44.16-22.76C2453.3,10,2429.65,0,2403.66,0h-55.95c-34.36,0-64.64,17.48-82.41,44.04-10.55,15.75-16.71,34.7-16.71,55.08,0,13.45,2.68,26.27,7.53,37.96l39.39-20.3c-1.87-5.54-2.89-11.48-2.89-17.66Z"/><polygon class="c" points="208.75 .45 208.75 198.54 164.53 198.54 164.53 121.42 44.23 121.42 44.23 135.21 44.22 135.21 44.22 198.54 0 198.54 0 .3 44.04 .3 44.04 77.43 164.71 77.43 164.71 .45 208.75 .45"/></svg>