<svg width="39" height="30" viewBox="0 0 39 30" fill="none" xmlns="http://www.w3.org/2000/svg">
<g clip-path="url(#clip0_116_81)">
<path d="M37.9567 9.55103L31.8965 12.6388C32.1266 13.3956 32.2494 14.1827 32.2494 15.0001C32.2494 17.7549 30.8992 20.1918 28.8127 21.7054C27.4012 22.7347 25.6675 23.3401 23.7958 23.3401H15.2041C14.0841 23.3401 13.0102 23.1282 12.0283 22.7347L5.12427 26.2463C7.80916 28.5924 11.3379 30.0152 15.2041 30.0152H23.7958C29.0735 30.0152 33.7069 27.3664 36.4378 23.3553C38.0641 20.9637 39 18.103 39 15.0152C39 13.0778 38.6317 11.2463 37.9567 9.55103Z" fill="white"/>
<path d="M6.75059 15C6.75059 12.2452 8.10071 9.80827 10.1873 8.29465C11.5834 7.26539 13.3324 6.65994 15.2042 6.65994H23.7958C25.0692 6.65994 26.2659 6.93239 27.3399 7.43189L34.1212 3.98083C31.4056 1.51362 27.7848 0 23.7958 0H15.2042C9.94178 0 5.29308 2.64884 2.56216 6.65994C0.95122 9.05146 0 11.9122 0 15C0 17.0283 0.414241 18.9808 1.15067 20.7518L7.19552 17.6791C6.91935 16.8315 6.75059 15.9384 6.75059 15Z" fill="#2DAFE6"/>
</g>
<defs>
<clipPath id="clip0_116_81">
<rect width="39" height="30" fill="white"/>
</clipPath>
</defs>
</svg>
