<svg width="30" height="30" viewBox="0 0 30 30" fill="none" xmlns="http://www.w3.org/2000/svg">
<path d="M13.0127 18L18.2085 15L13.0127 12V18Z" fill="#F7F6F5"/>
<path d="M15.0111 0C6.72887 0 0.0231628 6.71111 0.0231628 15C0.0231628 23.2889 6.72887 30 15.0111 30C23.2933 30 29.999 23.2889 29.999 15C29.999 6.71111 23.2711 0 15.0111 0ZM24.5812 19.8222C24.3591 20.6889 23.6708 21.3556 22.8048 21.6C21.2505 22.0222 14.9889 22.0222 14.9889 22.0222C14.9889 22.0222 8.74947 22.0222 7.17296 21.6C6.30699 21.3778 5.64086 20.6889 5.39661 19.8222C4.97473 18.2667 4.97473 15 4.97473 15C4.97473 15 4.97473 11.7556 5.39661 10.1778C5.61866 9.31111 6.30699 8.64444 7.17296 8.4C8.72727 7.97778 14.9889 7.97778 14.9889 7.97778C14.9889 7.97778 21.2283 7.97778 22.8048 8.4C23.6708 8.62222 24.3369 9.31111 24.5812 10.1778C25.003 11.7333 25.003 15 25.003 15C25.003 15 25.003 18.2444 24.5812 19.8222Z" fill="#F7F6F5"/>
</svg>
